<svg width="56" height="56" xmlns="http://www.w3.org/2000/svg"><g fill="none" fill-rule="evenodd"><path d="M0 0h56v56H0z"/><g transform="translate(12 15)"><rect stroke="#CCC" fill="#F2F2F2" x=".5" y=".5" width="31" height="31" rx="3"/><path d="M4 25c.803-6.894 3.882-11.015 6-11 2.577.015 4.555 3.47 7 7 1.67 2.567 3.491-.677 4-1-.082-.265.474-1.777 2-2 3.203.257 4 7 4 7H4zM21 7c.88 0 2 1.12 2 3 0 .88-1.12 2-2 2-1.88 0-3-1.12-3-2 0-1.88 1.12-3 3-3z" fill="#000"/></g><path d="M38 9.5a2.496 2.496 0 0 1 2.5 2.5v.5h-25V12c0-.69.28-1.315.732-1.768A2.492 2.492 0 0 1 18 9.5z" stroke="#CCC" fill="#F2F2F2"/></g></svg>