<?xml version="1.0" standalone="no"?><!DOCTYPE svg PUBLIC "-//W3C//DTD SVG 1.1//EN" "http://www.w3.org/Graphics/SVG/1.1/DTD/svg11.dtd"><svg t="1689241414266" class="icon" viewBox="0 0 1024 1024" version="1.1" xmlns="http://www.w3.org/2000/svg" p-id="5839" xmlns:xlink="http://www.w3.org/1999/xlink" width="18" height="18"><path d="M399.36 573.44H51.2c-28.16 0-51.2 23.04-51.2 51.2V972.8c0 28.16 23.04 51.2 51.2 51.2h350.72c28.16 0 51.2-23.04 51.2-51.2V624.64c-2.56-28.16-25.6-51.2-53.76-51.2z m0 399.36H51.2V624.64h350.72V972.8z m0-972.8H51.2C23.04 0 0 23.04 0 51.2v350.72c0 28.16 23.04 51.2 51.2 51.2h350.72c28.16 0 51.2-23.04 51.2-51.2V51.2c-2.56-28.16-25.6-51.2-53.76-51.2z m0 399.36H51.2V51.2h350.72v348.16zM972.8 0H624.64c-28.16 0-51.2 23.04-51.2 51.2v350.72c0 28.16 23.04 51.2 51.2 51.2H972.8c28.16 0 51.2-23.04 51.2-51.2V51.2c0-28.16-23.04-51.2-51.2-51.2z m0 399.36H624.64V51.2H972.8v348.16z m0 174.08H624.64c-28.16 0-51.2 23.04-51.2 51.2V972.8c0 28.16 23.04 51.2 51.2 51.2H972.8c28.16 0 51.2-23.04 51.2-51.2V624.64c0-28.16-23.04-51.2-51.2-51.2zM972.8 972.8H624.64V624.64H972.8V972.8z" fill="#6B993A" p-id="5840"></path></svg>